<svg xmlns="http://www.w3.org/2000/svg" width="57" height="64" viewBox="0 0 57 64" fill="none">
  <path d="M32.9419 38.5433V34.1425C32.9419 32.4073 31.3137 30.9957 29.3125 30.9957C27.3112 30.9957 25.683 32.4073 25.683 34.1425V38.1159C25.683 42.9041 23.6486 47.5012 19.9541 51.0602L14.8604 55.9675C14.4325 56.3798 14.4711 57.0148 14.9466 57.386C15.422 57.757 16.1544 57.7236 16.5825 57.3113L21.6762 52.404C25.7539 48.4754 27.9997 43.4012 27.9997 38.1159V34.1425C27.9997 33.5149 28.5886 33.0043 29.3125 33.0043C30.0363 33.0043 30.6252 33.5149 30.6252 34.1425V38.5433C30.6252 44.4357 28.1076 50.0819 23.5361 54.442L18.5709 59.1775C18.1407 59.5878 18.1756 60.2232 18.6489 60.5963C18.8709 60.7713 19.1496 60.8574 19.4276 60.8574C19.7427 60.8574 20.0565 60.7467 20.2851 60.5287L25.2501 55.7931C30.2102 51.0625 32.9419 44.9364 32.9419 38.5433Z" fill="#0469D8" stroke="#046CDB" stroke-width="0.431965"/>
  <path d="M37.8841 34.1425C37.8841 30.0445 34.0389 26.7106 29.3125 26.7106C24.5861 26.7106 20.7409 30.0445 20.7409 34.1425V38.1159C20.7409 41.8438 19.1569 45.4228 16.2807 48.1936L12.6595 51.6824C12.2316 52.0947 12.2702 52.7297 12.7457 53.1009C13.2212 53.4719 13.9534 53.4382 14.3816 53.0262L18.0028 49.5374C21.2625 46.3971 23.0577 42.3409 23.0577 38.1159V34.1425C23.0577 31.1521 25.8636 28.7192 29.3126 28.7192C32.7617 28.7192 35.5676 31.1521 35.5676 34.1425V38.5433C35.5676 45.5038 32.5936 52.1738 27.1932 57.3244L23.004 61.3201C22.5735 61.7304 22.6084 62.3658 23.0818 62.7389C23.3037 62.9139 23.5825 63 23.8605 63C24.1756 63 24.4894 62.8892 24.718 62.6712L28.9074 58.6755C34.6961 53.1544 37.8841 46.0048 37.8841 38.5433V34.1425Z" fill="#0469D8" stroke="#046CDB" stroke-width="0.431965"/>
  <path d="M42.8262 34.1425C42.8262 27.6817 36.764 22.4255 29.3125 22.4255C21.8609 22.4255 15.7987 27.6817 15.7987 34.1425V38.1159C15.7987 40.7834 14.6652 43.3444 12.6071 45.327L9.34653 48.4683C8.91857 48.8806 8.95718 49.5156 9.43271 49.8868C9.90808 50.2579 10.6406 50.2241 11.0686 49.8121L14.3292 46.6708C16.7708 44.3187 18.1153 41.2804 18.1153 38.1159V34.1425C18.1153 28.7892 23.1383 24.4341 29.3125 24.4341C35.4866 24.4341 40.5096 28.7892 40.5096 34.1425V38.5433C40.5096 46.5723 37.0791 54.2659 30.8499 60.2068L29.6905 61.3126C29.2603 61.723 29.2952 62.3583 29.7685 62.7314C29.9905 62.9062 30.2694 62.9925 30.5472 62.9925C30.8623 62.9925 31.1761 62.8817 31.4047 62.6637L32.564 61.5579C39.1815 55.2464 42.8261 47.0731 42.8261 38.5433V34.1425H42.8262Z" fill="#0469D8" stroke="#046CDB" stroke-width="0.431965"/>
  <path d="M10.8564 34.1426C10.8564 34.6973 11.3751 35.1469 12.0148 35.1469C12.6545 35.1469 13.1731 34.6973 13.1731 34.1426C13.1731 30.7607 14.5892 27.4938 17.1607 24.9437C19.7082 22.4172 23.2046 20.765 27.0058 20.2915C27.639 20.2126 28.0785 19.7035 27.9876 19.1546C27.8966 18.6056 27.309 18.225 26.6764 18.3034C22.3272 18.8452 18.3284 20.7338 15.4165 23.6217C12.4759 26.5379 10.8564 30.2743 10.8564 34.1426Z" fill="#0469D8" stroke="#046CDB" stroke-width="0.431965"/>
  <path d="M13.1731 38.1159C13.1731 37.5611 12.6545 37.1116 12.0148 37.1116C11.3751 37.1116 10.8565 37.5611 10.8565 38.1159C10.8565 39.7231 10.1737 41.2658 8.93383 42.4603L6.03354 45.2546C5.60558 45.6668 5.64419 46.3018 6.11972 46.673C6.34119 46.8457 6.61811 46.9307 6.89425 46.9307C7.21117 46.9307 7.52701 46.8185 7.75558 46.5982L10.6559 43.8041C12.2791 42.2402 13.1731 40.2201 13.1731 38.1159Z" fill="#0469D8" stroke="#046CDB" stroke-width="0.431965"/>
  <path d="M45.4949 47.0813C44.8757 46.9415 44.2431 47.2622 44.0809 47.7986C43.6533 49.2152 43.1214 50.6236 42.4994 51.9844C42.2638 52.5 42.5549 53.0837 43.1496 53.288C43.2897 53.336 43.434 53.3588 43.5761 53.3588C44.0371 53.3588 44.4731 53.1184 44.6533 52.7242C45.3095 51.288 45.8709 49.802 46.3222 48.3071C46.4841 47.7706 46.1136 47.2217 45.4949 47.0813Z" fill="#0469D8" stroke="#046CDB" stroke-width="0.431965"/>
  <path d="M41.6393 22.2423C41.1635 21.8712 40.4311 21.9052 40.0035 22.3177C39.5758 22.7301 39.6147 23.3651 40.0904 23.7359C43.4976 26.3916 45.4516 30.1846 45.4516 34.1425V38.5433C45.4516 40.2136 45.3188 41.8967 45.0567 43.5461C44.9694 44.0956 45.4124 44.6023 46.046 44.678C46.0996 44.6844 46.1529 44.6875 46.2056 44.6875C46.7752 44.6875 47.2717 44.323 47.3516 43.82C47.628 42.0802 47.7682 40.3048 47.7682 38.5432V34.1425C47.7684 29.6157 45.5344 25.2783 41.6393 22.2423Z" fill="#0469D8" stroke="#046CDB" stroke-width="0.431965"/>
  <path d="M36.2243 21.4983C36.385 21.5647 36.5545 21.596 36.7214 21.596C37.1543 21.596 37.5696 21.3846 37.7681 21.0232C38.0431 20.5225 37.7977 19.9231 37.2203 19.6848C35.5514 18.9958 33.7776 18.531 31.9482 18.3032C31.3141 18.2249 30.7279 18.6056 30.637 19.1545C30.546 19.7034 30.9856 20.2125 31.6188 20.2914C33.217 20.4905 34.7663 20.8965 36.2243 21.4983Z" fill="#0469D8" stroke="#046CDB" stroke-width="0.431965"/>
  <path d="M29.3125 13.8553C28.8791 13.8553 28.4408 13.8657 28.0094 13.8864C27.3706 13.9169 26.8814 14.3907 26.9166 14.9444C26.9519 15.4982 27.4978 15.9247 28.137 15.8918C28.526 15.8732 28.9214 15.8638 29.3123 15.8638C40.9366 15.8638 50.3938 24.0635 50.3938 34.1424V38.5432C50.3938 39.098 50.9124 39.5475 51.5521 39.5475C52.1918 39.5475 52.7104 39.098 52.7104 38.5432V34.1425C52.7106 22.9562 42.2142 13.8553 29.3125 13.8553Z" fill="#0469D8" stroke="#046CDB" stroke-width="0.431965"/>
  <path d="M16.6475 19.3045C16.8756 19.3045 17.1062 19.2461 17.3077 19.1246C19.2348 17.9627 21.3513 17.0952 23.5986 16.5458C24.2144 16.3953 24.5729 15.8404 24.3993 15.3066C24.2257 14.7728 23.5855 14.4624 22.9701 14.6124C20.4743 15.2225 18.1243 16.1857 15.9852 17.4753C15.46 17.792 15.3302 18.4178 15.6955 18.8731C15.9205 19.1541 16.281 19.3045 16.6475 19.3045Z" fill="#0469D8" stroke="#046CDB" stroke-width="0.431965"/>
  <path d="M8.23097 38.1159V34.1425C8.23097 29.4704 10.2716 25.0209 13.977 21.6133C14.4158 21.2097 14.3943 20.5742 13.9288 20.1936C13.4633 19.813 12.7302 19.8319 12.2914 20.2354C8.17908 24.0171 5.91432 28.9562 5.91432 34.1425V38.1159C5.91432 38.6626 5.68204 39.1874 5.26041 39.5936L3.83212 40.9695C3.40416 41.3818 3.44277 42.0168 3.9183 42.3879C4.13962 42.5607 4.41669 42.6458 4.69284 42.6458C5.00975 42.6458 5.32543 42.5337 5.55416 42.3134L6.98245 40.9375C7.78756 40.1616 8.23097 39.1596 8.23097 38.1159Z" fill="#0469D8" stroke="#046CDB" stroke-width="0.431965"/>
  <path d="M56.1817 26.3228C54.9112 23.0492 52.8922 20.0919 50.1806 17.5327C49.7477 17.1243 49.0151 17.0972 48.544 17.4726C48.073 17.8479 48.0419 18.4832 48.4747 18.8918C50.9654 21.2424 52.8198 23.9581 53.9861 26.9633C54.1489 27.3828 54.6002 27.6475 55.0838 27.6475C55.2062 27.6475 55.3309 27.6305 55.4533 27.5948C56.0595 27.4179 56.3857 26.8484 56.1817 26.3228Z" fill="#0469D8" stroke="#046CDB" stroke-width="0.431965"/>
  <path d="M38.4664 10.8855C37.8615 10.7059 37.2026 10.9856 36.9955 11.5105C36.7884 12.0353 37.1112 12.6063 37.7164 12.7858C40.2706 13.5436 42.6687 14.6413 44.844 16.049C45.052 16.1836 45.295 16.2484 45.5359 16.2484C45.8889 16.2484 46.2377 16.109 46.4652 15.8447C46.8479 15.4002 46.7422 14.7708 46.2296 14.4391C43.861 12.9067 41.249 11.7109 38.4664 10.8855Z" fill="#0469D8" stroke="#046CDB" stroke-width="0.431965"/>
  <path d="M11.3146 17.8602C16.1871 13.8096 22.5789 11.5788 29.3125 11.5788C30.5628 11.5788 31.8201 11.6569 33.0494 11.8106C33.683 11.8907 34.2699 11.5091 34.3613 10.96C34.4528 10.411 34.0137 9.90188 33.3805 9.82261C32.0418 9.65522 30.6731 9.57019 29.3125 9.57019C21.9784 9.57019 15.0172 11.9994 9.71131 16.4104C4.42195 20.8077 1.32861 26.7087 1.00119 33.0264C0.972464 33.5805 1.4673 34.05 2.10623 34.0748C2.12399 34.0756 2.1416 34.0759 2.1592 34.0759C2.77497 34.0759 3.28756 33.6554 3.31552 33.1167C3.61591 27.3168 6.45674 21.8987 11.3146 17.8602Z" fill="#0469D8" stroke="#046CDB" stroke-width="0.431965"/>
  <path d="M29.3125 5.2851C26.7222 5.2851 24.141 5.54541 21.6407 6.05882C21.0181 6.18657 20.6331 6.72783 20.7804 7.26749C20.9279 7.80714 21.5522 8.14111 22.1746 8.01323C24.5002 7.53598 26.9016 7.29373 29.3125 7.29373C37.8062 7.29373 45.7347 10.2278 51.6372 15.5553C51.8647 15.7606 52.1684 15.8639 52.4728 15.8639C52.7614 15.8639 53.0505 15.771 53.2751 15.5839C53.7364 15.1996 53.7512 14.5638 53.308 14.164C50.2326 11.3881 46.62 9.20449 42.5708 7.67404C38.3767 6.08882 33.916 5.2851 29.3125 5.2851Z" fill="#0469D8" stroke="#046CDB" stroke-width="0.431965"/>
  <path d="M3.2936 17.7928C3.5055 17.9366 3.75709 18.0063 4.00697 18.0063C4.35092 18.0063 4.69131 17.8742 4.91973 17.6212C8.22095 13.9652 12.567 11.0976 17.4878 9.32795C18.0787 9.11544 18.3592 8.52784 18.1141 8.0155C17.869 7.50317 17.191 7.25972 16.6004 7.4725C11.3121 9.37415 6.64224 12.4553 3.09576 16.3827C2.70131 16.8196 2.78996 17.4509 3.2936 17.7928Z" fill="#0469D8" stroke="#046CDB" stroke-width="0.431965"/>
  <path d="M13.2515 6.18564C13.4205 6.18564 13.5921 6.1535 13.7542 6.08547C18.6312 4.04376 23.8658 3.00864 29.3125 3.00864C32.1509 3.00864 34.9778 3.29815 37.7144 3.86914C38.336 3.9985 38.9618 3.66694 39.1115 3.12768C39.2611 2.58843 38.8783 2.04597 38.2562 1.91621C35.3424 1.30826 32.3333 1 29.3125 1C23.5141 1 17.9407 2.10234 12.7471 4.27663C12.171 4.5178 11.9295 5.11825 12.2076 5.61773C12.4073 5.97647 12.8209 6.18564 13.2515 6.18564Z" fill="#0469D8" stroke="#046CDB" stroke-width="0.431965"/>
  <path d="M42.5557 5.20248C43.7498 5.61478 44.9318 6.08882 46.0686 6.6112C46.2415 6.69075 46.4271 6.72837 46.61 6.72837C47.0251 6.72837 47.4265 6.53434 47.6344 6.19408C47.9338 5.70397 47.7186 5.09615 47.1533 4.83637C45.9429 4.28024 44.6844 3.77554 43.4127 3.33645C42.8182 3.13117 42.1447 3.38265 41.9079 3.8978C41.6713 4.41308 41.9614 4.99733 42.5557 5.20248Z" fill="#0469D8" stroke="#046CDB" stroke-width="0.431965"/>
</svg>