<svg width="28" height="31" viewBox="0 0 28 31" fill="none" xmlns="http://www.w3.org/2000/svg">
<path opacity="0.78" fill-rule="evenodd" clip-rule="evenodd" d="M12.6309 9.80885C12.651 9.54835 12.8682 9.3472 13.1294 9.3472H13.5473C13.8041 9.3472 14.0192 9.54185 14.0448 9.79745L14.6664 16.0139L19.0812 18.5366C19.237 18.6256 19.3331 18.7913 19.3331 18.9707V19.3592C19.3331 19.6889 19.0196 19.9284 18.7015 19.8416L12.3984 18.1226C12.167 18.0595 12.0131 17.841 12.0315 17.6019L12.6309 9.80885Z" fill="#FF9066"/>
<path opacity="0.901274" fill-rule="evenodd" clip-rule="evenodd" d="M6.72176 0.984404C6.45765 0.669655 5.94771 0.790125 5.85238 1.18979L4.21891 8.03793C4.14123 8.36358 4.39931 8.67208 4.73356 8.65313L11.7783 8.25392C12.1892 8.23063 12.3976 7.74861 12.133 7.43333L10.3316 5.28648C11.4965 4.88844 12.7317 4.68053 14 4.68053C20.2592 4.68053 25.3333 9.75464 25.3333 16.0139C25.3333 22.2731 20.2592 27.3472 14 27.3472C7.74077 27.3472 2.66667 22.2731 2.66667 16.0139C2.66667 14.9631 2.80896 13.934 3.08641 12.9448L0.518845 12.2246C0.180793 13.4298 0 14.7007 0 16.0139C0 23.7459 6.26801 30.0139 14 30.0139C21.732 30.0139 28 23.7459 28 16.0139C28 8.28188 21.732 2.01387 14 2.01387C12.0551 2.01387 10.2029 2.41044 8.51973 3.12714L6.72176 0.984404Z" fill="#FF9066"/>
</svg>
